<mxfile host="app.diagrams.net" agent="Mozilla/5.0 (Windows NT 10.0; Win64; x64) AppleWebKit/537.36 (KHTML, like Gecko) Chrome/140.0.0.0 Safari/537.36" version="28.2.5">
  <diagram name="Page-1" id="fau1d1SN9pRvBzFMPrUC">
    <mxGraphModel dx="2452" dy="692" grid="0" gridSize="10" guides="1" tooltips="1" connect="1" arrows="1" fold="1" page="0" pageScale="1" pageWidth="827" pageHeight="1169" math="0" shadow="0">
      <root>
        <mxCell id="0" />
        <mxCell id="1" parent="0" />
        <mxCell id="KiAbnsjRKru4ppElIW58-4" style="edgeStyle=orthogonalEdgeStyle;rounded=0;orthogonalLoop=1;jettySize=auto;html=1;" parent="1" source="KiAbnsjRKru4ppElIW58-2" target="KiAbnsjRKru4ppElIW58-3" edge="1">
          <mxGeometry relative="1" as="geometry" />
        </mxCell>
        <mxCell id="KiAbnsjRKru4ppElIW58-2" value="城乡居民基本医疗保险缴费情况" style="rounded=0;whiteSpace=wrap;html=1;" parent="1" vertex="1">
          <mxGeometry x="305" y="15" width="120" height="60" as="geometry" />
        </mxCell>
        <mxCell id="KiAbnsjRKru4ppElIW58-14" style="edgeStyle=orthogonalEdgeStyle;rounded=0;orthogonalLoop=1;jettySize=auto;html=1;" parent="1" source="KiAbnsjRKru4ppElIW58-3" target="KiAbnsjRKru4ppElIW58-13" edge="1">
          <mxGeometry relative="1" as="geometry" />
        </mxCell>
        <mxCell id="KiAbnsjRKru4ppElIW58-30" value="上海缴费情况" style="edgeLabel;html=1;align=center;verticalAlign=middle;resizable=0;points=[];" parent="KiAbnsjRKru4ppElIW58-14" vertex="1" connectable="0">
          <mxGeometry x="-0.2119" y="1" relative="1" as="geometry">
            <mxPoint as="offset" />
          </mxGeometry>
        </mxCell>
        <mxCell id="KiAbnsjRKru4ppElIW58-23" style="edgeStyle=orthogonalEdgeStyle;rounded=0;orthogonalLoop=1;jettySize=auto;html=1;" parent="1" source="KiAbnsjRKru4ppElIW58-3" target="KiAbnsjRKru4ppElIW58-21" edge="1">
          <mxGeometry relative="1" as="geometry" />
        </mxCell>
        <mxCell id="KiAbnsjRKru4ppElIW58-29" value="&lt;span style=&quot;text-wrap-mode: wrap; background-color: rgb(236, 236, 236);&quot;&gt;&lt;font style=&quot;font-size: 15px;&quot;&gt;2023花费情况&lt;/font&gt;&lt;/span&gt;" style="edgeLabel;html=1;align=center;verticalAlign=middle;resizable=0;points=[];" parent="KiAbnsjRKru4ppElIW58-23" vertex="1" connectable="0">
          <mxGeometry x="-0.1899" y="-4" relative="1" as="geometry">
            <mxPoint x="-19" as="offset" />
          </mxGeometry>
        </mxCell>
        <UserObject label="&lt;p style=&quot;text-size-adjust: none; margin: 15px 0px 0px; padding: 0px; border: 0px; list-style: none; color: rgb(51, 51, 51); font-family: 宋体; font-size: 16px; font-style: normal; font-variant-ligatures: normal; font-variant-caps: normal; font-weight: 400; letter-spacing: normal; orphans: 2; text-align: start; text-transform: none; widows: 2; word-spacing: 0px; -webkit-text-stroke-width: 0px; white-space: normal; background-color: rgb(255, 255, 255); text-decoration-thickness: initial; text-decoration-style: initial; text-decoration-color: initial; text-indent: 2em;&quot;&gt;新华社北京8月26日电（记者 徐鹏航、彭韵佳）根据国家医保局等部门26日公布的&lt;a href=&quot;https://www.gov.cn/zhengce/zhengceku/202408/content_6970593.htm&quot; target=&quot;_blank&quot; data-needdownload=&quot;false&quot; data-needparse=&quot;false&quot; style=&quot;text-size-adjust: none; margin: 0px; padding: 0px; border: 0px; outline: none; text-decoration: none; color: rgb(11, 119, 205); list-style: none;&quot;&gt;《关于做好2024年城乡居民基本医疗保障有关工作的通知》&lt;/a&gt;，2024年城乡居民基本医疗保险财政补助和个人缴费标准分别较上年增加30元和20元，达到每人每年不低于670元和400元。&lt;/p&gt;来源:https://www.gov.cn/lianbo/bumen/202408/content_6970589.htm" link="&lt;p style=&quot;text-size-adjust: none; margin: 15px 0px 0px; padding: 0px; border: 0px; list-style: none; color: rgb(51, 51, 51); font-family: 宋体; font-size: 16px; font-style: normal; font-variant-ligatures: normal; font-variant-caps: normal; font-weight: 400; letter-spacing: normal; orphans: 2; text-align: start; text-transform: none; widows: 2; word-spacing: 0px; -webkit-text-stroke-width: 0px; white-space: normal; background-color: rgb(255, 255, 255); text-decoration-thickness: initial; text-decoration-style: initial; text-decoration-color: initial; text-indent: 2em;&quot;&gt;新华社北京8月26日电（记者 徐鹏航、彭韵佳）根据国家医保局等部门26日公布的&lt;a href=&quot;https://www.gov.cn/zhengce/zhengceku/202408/content_6970593.htm&quot; target=&quot;_blank&quot; data-needdownload=&quot;false&quot; data-needparse=&quot;false&quot; style=&quot;text-size-adjust: none; margin: 0px; padding: 0px; border: 0px; outline: none; text-decoration: none; color: rgb(11, 119, 205); list-style: none;&quot;&gt;《关于做好2024年城乡居民基本医疗保障有关工作的通知》&lt;/a&gt;，2024年城乡居民基本医疗保险财政补助和个人缴费标准分别较上年增加30元和20元，达到每人每年不低于670元和400元。&lt;/p&gt;&lt;br class=&quot;Apple-interchange-newline&quot;&gt;" id="KiAbnsjRKru4ppElIW58-3">
          <mxCell style="text;whiteSpace=wrap;html=1;" parent="1" vertex="1">
            <mxGeometry x="85" y="120" width="560" height="130" as="geometry" />
          </mxCell>
        </UserObject>
        <mxCell id="KiAbnsjRKru4ppElIW58-47" style="edgeStyle=orthogonalEdgeStyle;rounded=0;orthogonalLoop=1;jettySize=auto;html=1;entryX=0;entryY=0.5;entryDx=0;entryDy=0;exitX=0;exitY=0.5;exitDx=0;exitDy=0;" parent="1" source="KiAbnsjRKru4ppElIW58-5" target="KiAbnsjRKru4ppElIW58-34" edge="1">
          <mxGeometry relative="1" as="geometry">
            <mxPoint x="-800" y="1010" as="targetPoint" />
          </mxGeometry>
        </mxCell>
        <UserObject label="&lt;p style=&quot;forced-color-adjust: none; font-style: normal; font-variant-ligatures: normal; font-variant-caps: normal; font-weight: 400; letter-spacing: normal; orphans: 2; text-align: left; text-transform: none; widows: 2; word-spacing: 0px; -webkit-text-stroke-width: 0px; white-space: normal; text-decoration-thickness: initial; text-decoration-style: initial; text-decoration-color: initial; box-sizing: border-box; margin-top: 0px; margin-right: 0px; margin-left: 0px; padding: 0px; color: rgb(51, 51, 51); font-family: 微软雅黑, &amp;quot;Microsoft YaHei&amp;quot;, 黑体; font-size: 16px; background-color: rgb(255, 255, 255); text-indent: 2em; margin-bottom: 20px !important; line-height: 30px !important;&quot;&gt;&lt;strong style=&quot;forced-color-adjust: none; box-sizing: border-box; font-weight: bold;&quot;&gt;&lt;span style=&quot;font-weight: 400; text-indent: 24px;&quot;&gt;2024总体人均花费:&amp;nbsp; 城乡居民医保 人均基金支付：10661.49 亿元 × 10000 / 94713.73 万人 ≈ 1126 元/人&lt;/span&gt;&lt;/strong&gt;&lt;/p&gt;&lt;p style=&quot;forced-color-adjust: none; font-style: normal; font-variant-ligatures: normal; font-variant-caps: normal; font-weight: 400; letter-spacing: normal; orphans: 2; text-align: left; text-transform: none; widows: 2; word-spacing: 0px; -webkit-text-stroke-width: 0px; white-space: normal; text-decoration-thickness: initial; text-decoration-style: initial; text-decoration-color: initial; box-sizing: border-box; margin-top: 0px; margin-right: 0px; margin-left: 0px; padding: 0px; color: rgb(51, 51, 51); font-family: 微软雅黑, &amp;quot;Microsoft YaHei&amp;quot;, 黑体; font-size: 16px; background-color: rgb(255, 255, 255); text-indent: 2em; margin-bottom: 20px !important; line-height: 30px !important;&quot;&gt;&lt;strong style=&quot;forced-color-adjust: none; box-sizing: border-box; font-weight: bold;&quot;&gt;&lt;span style=&quot;font-weight: 400; text-indent: 24px;&quot;&gt;引用资料:&lt;/span&gt;&lt;/strong&gt;&lt;/p&gt;&lt;p style=&quot;forced-color-adjust: none; font-style: normal; font-variant-ligatures: normal; font-variant-caps: normal; font-weight: 400; letter-spacing: normal; orphans: 2; text-align: left; text-transform: none; widows: 2; word-spacing: 0px; -webkit-text-stroke-width: 0px; white-space: normal; text-decoration-thickness: initial; text-decoration-style: initial; text-decoration-color: initial; box-sizing: border-box; margin-top: 0px; margin-right: 0px; margin-left: 0px; padding: 0px; color: rgb(51, 51, 51); font-family: 微软雅黑, &amp;quot;Microsoft YaHei&amp;quot;, 黑体; background-color: rgb(255, 255, 255); text-indent: 2em; margin-bottom: 20px !important; line-height: 30px !important;&quot;&gt;&lt;font style=&quot;font-size: 11px;&quot;&gt;&lt;strong style=&quot;forced-color-adjust: none; box-sizing: border-box; font-weight: bold;&quot;&gt;1.&lt;/strong&gt;&lt;strong style=&quot;forced-color-adjust: none; box-sizing: border-box; font-weight: bold;&quot;&gt;参保人数。&lt;/strong&gt;截至2024年底，城乡居民基本医疗保险（以下简称居民医保）参保94713.73万人。&lt;/font&gt;&lt;/p&gt;&lt;p style=&quot;forced-color-adjust: none; font-style: normal; font-variant-ligatures: normal; font-variant-caps: normal; font-weight: 400; letter-spacing: normal; orphans: 2; text-align: left; text-transform: none; widows: 2; word-spacing: 0px; -webkit-text-stroke-width: 0px; white-space: normal; text-decoration-thickness: initial; text-decoration-style: initial; text-decoration-color: initial; box-sizing: border-box; margin-top: 0px; margin-right: 0px; margin-left: 0px; padding: 0px; color: rgb(51, 51, 51); font-family: 微软雅黑, &amp;quot;Microsoft YaHei&amp;quot;, 黑体; background-color: rgb(255, 255, 255); text-indent: 2em; margin-bottom: 20px !important; line-height: 30px !important;&quot;&gt;&lt;font style=&quot;font-size: 11px;&quot;&gt;&lt;strong style=&quot;forced-color-adjust: none; box-sizing: border-box; font-weight: bold;&quot;&gt;2.&lt;/strong&gt;&lt;strong style=&quot;forced-color-adjust: none; box-sizing: border-box; font-weight: bold;&quot;&gt;基金收支。&lt;/strong&gt;2024年居民医保基金收入11180.91亿元，支出10661.49亿元，当期结存519.42亿元&lt;/font&gt;&lt;/p&gt;&lt;p style=&quot;forced-color-adjust: none; font-style: normal; font-variant-ligatures: normal; font-variant-caps: normal; font-weight: 400; letter-spacing: normal; orphans: 2; text-align: left; text-transform: none; widows: 2; word-spacing: 0px; -webkit-text-stroke-width: 0px; white-space: normal; text-decoration-thickness: initial; text-decoration-style: initial; text-decoration-color: initial; box-sizing: border-box; margin-top: 0px; margin-right: 0px; margin-left: 0px; padding: 0px; background-color: rgb(255, 255, 255); text-indent: 2em; font-family: 微软雅黑, &amp;quot;Microsoft YaHei&amp;quot;, 黑体; color: rgb(51, 51, 51); margin-bottom: 20px !important; line-height: 30px !important;&quot;&gt;&lt;font style=&quot;font-size: 11px;&quot;&gt;来源:https://www.nhsa.gov.cn/art/2025/7/14/art_7_17248.html&lt;/font&gt;&lt;/p&gt;" link="&lt;p data-mx-given-colors=&quot;{&amp;quot;color&amp;quot;:&amp;quot;rgb(51, 51, 51)&amp;quot;,&amp;quot;background-color&amp;quot;:&amp;quot;rgb(255, 255, 255)&amp;quot;}&quot; style=&quot;forced-color-adjust: none; font-style: normal; font-variant-ligatures: normal; font-variant-caps: normal; font-weight: 400; letter-spacing: normal; orphans: 2; text-align: left; text-transform: none; widows: 2; word-spacing: 0px; -webkit-text-stroke-width: 0px; white-space: normal; text-decoration-thickness: initial; text-decoration-style: initial; text-decoration-color: initial; box-sizing: border-box; margin-top: 0px; margin-right: 0px; margin-left: 0px; padding: 0px; color: light-dark(rgb(51, 51, 51), rgb(193, 193, 193)); font-family: 微软雅黑, &amp;quot;Microsoft YaHei&amp;quot;, 黑体; font-size: 16px; background-color: light-dark(rgb(255, 255, 255), rgb(18, 18, 18)); text-indent: 2em; margin-bottom: 20px !important; line-height: 30px !important;&quot;&gt;&lt;strong style=&quot;forced-color-adjust: none; box-sizing: border-box; font-weight: bold;&quot;&gt;1.&lt;/strong&gt;&lt;strong style=&quot;forced-color-adjust: none; box-sizing: border-box; font-weight: bold;&quot;&gt;参保人数。&lt;/strong&gt;截至2024年底，城乡居民基本医疗保险（以下简称居民医保）参保94713.73万人。&lt;/p&gt;&lt;p data-mx-given-colors=&quot;{&amp;quot;color&amp;quot;:&amp;quot;rgb(51, 51, 51)&amp;quot;,&amp;quot;background-color&amp;quot;:&amp;quot;rgb(255, 255, 255)&amp;quot;}&quot; style=&quot;forced-color-adjust: none; font-style: normal; font-variant-ligatures: normal; font-variant-caps: normal; font-weight: 400; letter-spacing: normal; orphans: 2; text-align: left; text-transform: none; widows: 2; word-spacing: 0px; -webkit-text-stroke-width: 0px; white-space: normal; text-decoration-thickness: initial; text-decoration-style: initial; text-decoration-color: initial; box-sizing: border-box; margin-top: 0px; margin-right: 0px; margin-left: 0px; padding: 0px; color: light-dark(rgb(51, 51, 51), rgb(193, 193, 193)); font-family: 微软雅黑, &amp;quot;Microsoft YaHei&amp;quot;, 黑体; font-size: 16px; background-color: light-dark(rgb(255, 255, 255), rgb(18, 18, 18)); text-indent: 2em; margin-bottom: 20px !important; line-height: 30px !important;&quot;&gt;&lt;strong style=&quot;forced-color-adjust: none; box-sizing: border-box; font-weight: bold;&quot;&gt;2.&lt;/strong&gt;&lt;strong style=&quot;forced-color-adjust: none; box-sizing: border-box; font-weight: bold;&quot;&gt;基金收支。&lt;/strong&gt;2024年居民医保基金收入11180.91亿元，支出10661.49亿元，当期结存519.42亿元&lt;/p&gt;&lt;p data-mx-given-colors=&quot;{&amp;quot;color&amp;quot;:&amp;quot;rgb(51, 51, 51)&amp;quot;,&amp;quot;background-color&amp;quot;:&amp;quot;rgb(255, 255, 255)&amp;quot;}&quot; style=&quot;forced-color-adjust: none; font-style: normal; font-variant-ligatures: normal; font-variant-caps: normal; font-weight: 400; letter-spacing: normal; orphans: 2; text-align: left; text-transform: none; widows: 2; word-spacing: 0px; -webkit-text-stroke-width: 0px; white-space: normal; text-decoration-thickness: initial; text-decoration-style: initial; text-decoration-color: initial; box-sizing: border-box; margin-top: 0px; margin-right: 0px; margin-left: 0px; padding: 0px; color: light-dark(rgb(51, 51, 51), rgb(193, 193, 193)); font-family: 微软雅黑, &amp;quot;Microsoft YaHei&amp;quot;, 黑体; font-size: 16px; background-color: light-dark(rgb(255, 255, 255), rgb(18, 18, 18)); text-indent: 2em; margin-bottom: 20px !important; line-height: 30px !important;&quot;&gt;&lt;br style=&quot;forced-color-adjust: none;&quot;&gt;&lt;/p&gt;&lt;p data-mx-given-colors=&quot;{&amp;quot;background-color&amp;quot;:&amp;quot;rgb(255, 255, 255)&amp;quot;,&amp;quot;color&amp;quot;:&amp;quot;rgb(51, 51, 51)&amp;quot;}&quot; style=&quot;forced-color-adjust: none; font-style: normal; font-variant-ligatures: normal; font-variant-caps: normal; font-weight: 400; letter-spacing: normal; orphans: 2; text-align: left; text-transform: none; widows: 2; word-spacing: 0px; -webkit-text-stroke-width: 0px; white-space: normal; text-decoration-thickness: initial; text-decoration-style: initial; text-decoration-color: initial; box-sizing: border-box; margin-top: 0px; margin-right: 0px; margin-left: 0px; padding: 0px; background-color: light-dark(rgb(255, 255, 255), rgb(18, 18, 18)); text-indent: 2em; font-size: 16px; font-family: 微软雅黑, &amp;quot;Microsoft YaHei&amp;quot;, 黑体; color: light-dark(rgb(51, 51, 51), rgb(193, 193, 193)); margin-bottom: 20px !important; line-height: 30px !important;&quot;&gt;来源:https://www.nhsa.gov.cn/art/2025/7/14/art_7_17248.html&lt;/p&gt;" id="KiAbnsjRKru4ppElIW58-5">
          <mxCell style="text;whiteSpace=wrap;html=1;fillColor=#dae8fc;strokeColor=#6c8ebf;" parent="1" vertex="1">
            <mxGeometry x="-739.5" y="400" width="559" height="250" as="geometry" />
          </mxCell>
        </UserObject>
        <UserObject label="住院回报率计算示例&#xa;基本假设&#xa;住院概率：根据2024年统计数据，住院人次数与参保人数之比约为0.2175，视作个人一年内住院一次的概率约21.75%。&#xa;&#xa;平均住院费用：次均住院费用约7 408元&#xa;&#xa;医保报销比例：政策范围内住院目录内费用由基金支付的比例为68.6%&#xa;&#xa;个人缴费：居民医保个人缴费400元/年&#xa;&#xa;预期支出对比&#xa;不参保时：发生住院时需全额自付。住院概率为21.75%，平均费用7 408元，因此期望支出=0.2175×7 408≈1 611元/人·年。&#xa;&#xa;参保后：住院费用的68.6%由医保基金支付，个人自付比例约31.4%。平均个人自付费用=7 408×(1–0.686)=约2 321元。期望住院自付支出=0.2175×2 321≈506元，再加上年度缴费400元，总期望支出约906元/人·年。" link="回报率计算示例&#xa;基本假设&#xa;住院概率：根据2024年统计数据，住院人次数与参保人数之比约为0.2175，视作个人一年内住院一次的概率约21.75%。&#xa;&#xa;&#xa;平均住院费用：次均住院费用约7 408元&#xa;gov.cn&#xa;。&#xa;&#xa;&#xa;医保报销比例：政策范围内住院目录内费用由基金支付的比例为68.6%&#xa;gov.cn&#xa;。&#xa;&#xa;&#xa;个人缴费：居民医保个人缴费400元/年&#xa;gov.cn&#xa;。&#xa;&#xa;&#xa;预期支出对比&#xa;不参保时：发生住院时需全额自付。住院概率为21.75%，平均费用7 408元，因此期望支出=0.2175×7 408≈1 611元/人·年。&#xa;&#xa;&#xa;参保后：住院费用的68.6%由医保基金支付，个人自付比例约31.4%。平均个人自付费用=7 408×(1–0.686)=约2 321元。期望住院自付支出=0.2175×2 321≈506元，再加上年度缴费400元，总期望支出约906元/人·年。" id="KiAbnsjRKru4ppElIW58-6">
          <mxCell style="text;whiteSpace=wrap;" parent="1" vertex="1">
            <mxGeometry x="-750" y="1350" width="560" height="350" as="geometry" />
          </mxCell>
        </UserObject>
        <mxCell id="KiAbnsjRKru4ppElIW58-7" value="2023门诊花费: 7,111.05 亿元 ÷ 20.8 亿人次 ≈ 341.5 元／次&#xa;引用资料: 2023年，参加居民医保人员享受待遇26.1亿人次，比上年增长21.1%。其中，普通门急诊20.8亿人次，门诊慢特病3.4亿人次，住院2亿人次。次均住院费用7674元，居民医保参保人员住院率为20.7%，次均住院床日8.8天。2023年，居民医保参保人员医药费用19581.56亿元，比上年增长19.4%。居民医保住院费用目录内基金支付比例68.1%。&#xa;https://www.gov.cn/lianbo/bumen/202407/content_6964533.htm" style="text;whiteSpace=wrap;" parent="1" vertex="1">
          <mxGeometry x="-760" y="1240" width="560" height="80" as="geometry" />
        </mxCell>
        <mxCell id="KiAbnsjRKru4ppElIW58-39" style="edgeStyle=orthogonalEdgeStyle;rounded=0;orthogonalLoop=1;jettySize=auto;html=1;entryX=0.5;entryY=0;entryDx=0;entryDy=0;" parent="1" source="KiAbnsjRKru4ppElIW58-10" target="KiAbnsjRKru4ppElIW58-34" edge="1">
          <mxGeometry relative="1" as="geometry" />
        </mxCell>
        <mxCell id="KiAbnsjRKru4ppElIW58-40" value="年轻人住院为7%" style="edgeLabel;html=1;align=center;verticalAlign=middle;resizable=0;points=[];" parent="KiAbnsjRKru4ppElIW58-39" vertex="1" connectable="0">
          <mxGeometry x="-0.3369" relative="1" as="geometry">
            <mxPoint as="offset" />
          </mxGeometry>
        </mxCell>
        <mxCell id="KiAbnsjRKru4ppElIW58-10" value="&lt;p style=&quot;text-size-adjust: none; margin: 15px 0px 0px; padding: 0px; border: 0px; list-style: none; color: rgb(51, 51, 51); font-family: 宋体; font-size: 16px; font-style: normal; font-variant-ligatures: normal; font-variant-caps: normal; font-weight: 400; letter-spacing: normal; orphans: 2; text-align: start; text-transform: none; widows: 2; word-spacing: 0px; -webkit-text-stroke-width: 0px; white-space: normal; background-color: rgb(255, 255, 255); text-decoration-thickness: initial; text-decoration-style: initial; text-decoration-color: initial; text-indent: 2em;&quot;&gt;年轻人住院情况: 20—29岁年龄段人群住院率为7%&lt;/p&gt;&lt;p style=&quot;text-size-adjust: none; margin: 15px 0px 0px; padding: 0px; border: 0px; list-style: none; color: rgb(51, 51, 51); font-family: 宋体; font-style: normal; font-variant-ligatures: normal; font-variant-caps: normal; font-weight: 400; letter-spacing: normal; orphans: 2; text-align: start; text-transform: none; widows: 2; word-spacing: 0px; -webkit-text-stroke-width: 0px; white-space: normal; background-color: rgb(255, 255, 255); text-decoration-thickness: initial; text-decoration-style: initial; text-decoration-color: initial; text-indent: 2em;&quot;&gt;&lt;font&gt;引用资料:&lt;/font&gt;&lt;/p&gt;&lt;p style=&quot;text-size-adjust: none; margin: 15px 0px 0px; padding: 0px; border: 0px; list-style: none; color: rgb(51, 51, 51); font-family: 宋体; font-style: normal; font-variant-ligatures: normal; font-variant-caps: normal; font-weight: 400; letter-spacing: normal; orphans: 2; text-align: start; text-transform: none; widows: 2; word-spacing: 0px; -webkit-text-stroke-width: 0px; white-space: normal; background-color: rgb(255, 255, 255); text-decoration-thickness: initial; text-decoration-style: initial; text-decoration-color: initial; text-indent: 2em;&quot;&gt;&lt;font&gt;很多健康状况比较好的人，特别是年轻人认为没有必要参加基本医保。对此，黄华波表示，基本医保是用来防风险的。每个群体都可能面临疾病风险，国家医保平台最新数据显示，20—29岁年龄段人群住院率为7%，以人次来看，为9%。这个年龄段住院费用最高为205万元，疾病风险是很大的。按时参加医保，是明智且必要的选择。&lt;/font&gt;&lt;/p&gt;&lt;p style=&quot;text-size-adjust: none; margin: 15px 0px 0px; padding: 0px; border: 0px; list-style: none; color: rgb(51, 51, 51); font-family: 宋体; font-style: normal; font-variant-ligatures: normal; font-variant-caps: normal; font-weight: 400; letter-spacing: normal; orphans: 2; text-align: start; text-transform: none; widows: 2; word-spacing: 0px; -webkit-text-stroke-width: 0px; white-space: normal; background-color: rgb(255, 255, 255); text-decoration-thickness: initial; text-decoration-style: initial; text-decoration-color: initial; text-indent: 2em;&quot;&gt;&lt;font&gt;https://www.gov.cn/zhengce/202408/content_6966056.htm&lt;/font&gt;&lt;/p&gt;" style="text;whiteSpace=wrap;html=1;fillColor=#6a00ff;fontColor=#ffffff;strokeColor=#3700CC;" parent="1" vertex="1">
          <mxGeometry x="-391" y="675" width="550" height="160" as="geometry" />
        </mxCell>
        <mxCell id="KiAbnsjRKru4ppElIW58-48" style="edgeStyle=orthogonalEdgeStyle;rounded=0;orthogonalLoop=1;jettySize=auto;html=1;entryX=1;entryY=0.5;entryDx=0;entryDy=0;exitX=1;exitY=0.5;exitDx=0;exitDy=0;" parent="1" source="KiAbnsjRKru4ppElIW58-13" target="KiAbnsjRKru4ppElIW58-42" edge="1">
          <mxGeometry relative="1" as="geometry" />
        </mxCell>
        <mxCell id="KiAbnsjRKru4ppElIW58-13" value="上海缴费情况: 995元&#xa;引用资料:（二）2025年本市城乡居民医保的个人缴费标准作如下调整：70周岁以上人员，个人缴费标准从每人每年595元调整为655元；60-69周岁人员从每人每年765元调整为825元；超过18周岁、不满60周岁人员从每人每年935元调整为995元；中小学生和婴幼儿、以及大学生从每人每年295元调整为355元。&#xa;https://ybj.sh.gov.cn/gfxwj/20241118/09edaee89c1245ec95f6f4befd727488.html" style="text;whiteSpace=wrap;fillColor=#d5e8d4;strokeColor=#82b366;" parent="1" vertex="1">
          <mxGeometry x="100" y="300" width="530" height="130" as="geometry" />
        </mxCell>
        <mxCell id="KiAbnsjRKru4ppElIW58-24" style="edgeStyle=orthogonalEdgeStyle;rounded=0;orthogonalLoop=1;jettySize=auto;html=1;entryX=0.5;entryY=0;entryDx=0;entryDy=0;" parent="1" source="KiAbnsjRKru4ppElIW58-21" target="KiAbnsjRKru4ppElIW58-5" edge="1">
          <mxGeometry relative="1" as="geometry" />
        </mxCell>
        <mxCell id="KiAbnsjRKru4ppElIW58-28" value="&lt;font style=&quot;font-size: 15px;&quot;&gt;2024&lt;/font&gt;" style="edgeLabel;html=1;align=center;verticalAlign=middle;resizable=0;points=[];" parent="KiAbnsjRKru4ppElIW58-24" vertex="1" connectable="0">
          <mxGeometry x="-0.2573" y="-2" relative="1" as="geometry">
            <mxPoint as="offset" />
          </mxGeometry>
        </mxCell>
        <mxCell id="KiAbnsjRKru4ppElIW58-59" style="edgeStyle=orthogonalEdgeStyle;rounded=0;orthogonalLoop=1;jettySize=auto;html=1;entryX=0;entryY=0.5;entryDx=0;entryDy=0;" parent="1" source="KiAbnsjRKru4ppElIW58-21" target="KiAbnsjRKru4ppElIW58-34" edge="1">
          <mxGeometry relative="1" as="geometry">
            <Array as="points">
              <mxPoint x="-821" y="190" />
              <mxPoint x="-821" y="860" />
            </Array>
          </mxGeometry>
        </mxCell>
        <UserObject label="&lt;p style=&quot;forced-color-adjust: none; font-family: Helvetica; font-style: normal; font-variant-ligatures: normal; font-variant-caps: normal; font-weight: 400; letter-spacing: normal; orphans: 2; text-align: left; text-transform: none; widows: 2; word-spacing: 0px; -webkit-text-stroke-width: 0px; white-space: normal; text-decoration-thickness: initial; text-decoration-style: initial; text-decoration-color: initial; text-size-adjust: none; margin: 15px 0px 0px; padding: 0px; border: 0px; list-style: none; background-color: rgb(255, 255, 255); text-indent: 2em; color: rgb(51, 51, 51);&quot;&gt;&lt;font color=&quot;#333333&quot; face=&quot;宋体&quot; style=&quot;forced-color-adjust: none; font-size: 14px;&quot;&gt;&lt;span style=&quot;forced-color-adjust: none;&quot;&gt;2023 年居民医保基金支出：10457.65 亿元&lt;/span&gt;&lt;/font&gt;&lt;/p&gt;&lt;p style=&quot;forced-color-adjust: none; font-family: Helvetica; font-style: normal; font-variant-ligatures: normal; font-variant-caps: normal; font-weight: 400; letter-spacing: normal; orphans: 2; text-align: left; text-transform: none; widows: 2; word-spacing: 0px; -webkit-text-stroke-width: 0px; white-space: normal; text-decoration-thickness: initial; text-decoration-style: initial; text-decoration-color: initial; text-size-adjust: none; margin: 15px 0px 0px; padding: 0px; border: 0px; list-style: none; background-color: rgb(255, 255, 255); text-indent: 2em; color: rgb(51, 51, 51);&quot;&gt;&lt;font color=&quot;#333333&quot; face=&quot;宋体&quot; style=&quot;forced-color-adjust: none; font-size: 14px;&quot;&gt;&lt;span style=&quot;forced-color-adjust: none;&quot;&gt;2023 年居民医保参保人数：96294 万人 ≈ 9.6294 亿人&lt;/span&gt;&lt;/font&gt;&lt;/p&gt;&lt;p style=&quot;forced-color-adjust: none; font-family: Helvetica; font-style: normal; font-variant-ligatures: normal; font-variant-caps: normal; font-weight: 400; letter-spacing: normal; orphans: 2; text-align: left; text-transform: none; widows: 2; word-spacing: 0px; -webkit-text-stroke-width: 0px; white-space: normal; text-decoration-thickness: initial; text-decoration-style: initial; text-decoration-color: initial; text-size-adjust: none; margin: 15px 0px 0px; padding: 0px; border: 0px; list-style: none; background-color: rgb(255, 255, 255); text-indent: 2em; color: rgb(51, 51, 51);&quot;&gt;&lt;font color=&quot;#333333&quot; face=&quot;宋体&quot; style=&quot;forced-color-adjust: none; font-size: 14px;&quot;&gt;&lt;span style=&quot;forced-color-adjust: none;&quot;&gt;计算：&lt;/span&gt;&lt;/font&gt;&lt;/p&gt;&lt;p style=&quot;forced-color-adjust: none; font-family: Helvetica; font-style: normal; font-variant-ligatures: normal; font-variant-caps: normal; font-weight: 400; letter-spacing: normal; orphans: 2; text-align: left; text-transform: none; widows: 2; word-spacing: 0px; -webkit-text-stroke-width: 0px; white-space: normal; text-decoration-thickness: initial; text-decoration-style: initial; text-decoration-color: initial; text-size-adjust: none; margin: 15px 0px 0px; padding: 0px; border: 0px; list-style: none; background-color: rgb(255, 255, 255); text-indent: 2em; color: rgb(51, 51, 51);&quot;&gt;&lt;font color=&quot;#333333&quot; face=&quot;宋体&quot; style=&quot;forced-color-adjust: none; font-size: 14px;&quot;&gt;&lt;span style=&quot;forced-color-adjust: none;&quot;&gt;人均支出 = 10457.65 亿元 ÷ 9.6294 亿人 ≈ 1086.4 元/人·年&lt;/span&gt;&lt;/font&gt;&lt;/p&gt;&lt;p style=&quot;forced-color-adjust: none; font-family: Helvetica; font-style: normal; font-variant-ligatures: normal; font-variant-caps: normal; font-weight: 400; letter-spacing: normal; orphans: 2; text-align: left; text-transform: none; widows: 2; word-spacing: 0px; -webkit-text-stroke-width: 0px; white-space: normal; text-decoration-thickness: initial; text-decoration-style: initial; text-decoration-color: initial; text-size-adjust: none; margin: 15px 0px 0px; padding: 0px; border: 0px; list-style: none; background-color: rgb(255, 255, 255); text-indent: 2em; color: rgb(51, 51, 51);&quot;&gt;&lt;font color=&quot;#333333&quot; face=&quot;宋体&quot; style=&quot;forced-color-adjust: none; font-size: 14px;&quot;&gt;&lt;span style=&quot;forced-color-adjust: none;&quot;&gt;������ 结论：城乡居民医保人均基金支出 ≈ 1086 元/年&lt;/span&gt;&lt;/font&gt;&lt;/p&gt;&lt;p style=&quot;forced-color-adjust: none; font-family: Helvetica; font-style: normal; font-variant-ligatures: normal; font-variant-caps: normal; font-weight: 400; letter-spacing: normal; orphans: 2; text-align: left; text-transform: none; widows: 2; word-spacing: 0px; -webkit-text-stroke-width: 0px; white-space: normal; text-decoration-thickness: initial; text-decoration-style: initial; text-decoration-color: initial; text-size-adjust: none; margin: 15px 0px 0px; padding: 0px; border: 0px; list-style: none; background-color: rgb(255, 255, 255); text-indent: 2em; color: rgb(51, 51, 51);&quot;&gt;&lt;font color=&quot;#333333&quot; face=&quot;宋体&quot; style=&quot;forced-color-adjust: none; font-size: 10px;&quot;&gt;&lt;span style=&quot;forced-color-adjust: none;&quot;&gt;引用资料:&lt;/span&gt;&lt;/font&gt;&lt;/p&gt;&lt;p style=&quot;forced-color-adjust: none; font-style: normal; font-variant-ligatures: normal; font-variant-caps: normal; font-weight: 400; letter-spacing: normal; orphans: 2; text-transform: none; widows: 2; word-spacing: 0px; -webkit-text-stroke-width: 0px; white-space: normal; text-decoration-thickness: initial; text-decoration-style: initial; text-decoration-color: initial; text-size-adjust: none; margin: 15px 0px 0px; padding: 0px; border: 0px; list-style: none; color: rgb(51, 51, 51); font-family: 宋体; text-align: start; background-color: rgb(255, 255, 255); text-indent: 2em;&quot;&gt;&lt;font style=&quot;font-size: 10px;&quot;&gt;截至2023年底，全国基本医疗保险参保133389万人，其中，职工基本医疗保险参保37095万人，比上年增加852万人，增长2.3%；城乡居民基本医疗保险（以下简称“居民医保”）参保96294万人。&lt;/font&gt;&lt;/p&gt;&lt;p style=&quot;forced-color-adjust: none; font-family: Helvetica; font-style: normal; font-variant-ligatures: normal; font-variant-caps: normal; font-weight: 400; letter-spacing: normal; orphans: 2; text-transform: none; widows: 2; word-spacing: 0px; -webkit-text-stroke-width: 0px; white-space: normal; text-decoration-thickness: initial; text-decoration-style: initial; text-decoration-color: initial; text-size-adjust: none; margin: 15px 0px 0px; padding: 0px; border: 0px; list-style: none; text-align: start; background-color: rgb(255, 255, 255); text-indent: 2em; color: rgb(51, 51, 51);&quot;&gt;&lt;font color=&quot;#333333&quot; face=&quot;宋体&quot; style=&quot;forced-color-adjust: none; font-size: 10px;&quot;&gt;&lt;span style=&quot;forced-color-adjust: none;&quot;&gt;2023年，居民医保基金收入10569.71亿元，支出10457.65亿元，当期结存112.06亿元，累计结存7663.70亿元。&lt;/span&gt;&lt;/font&gt;&lt;/p&gt;&lt;p style=&quot;forced-color-adjust: none; color: rgb(0, 0, 0); font-family: Helvetica; font-style: normal; font-variant-ligatures: normal; font-variant-caps: normal; font-weight: 400; letter-spacing: normal; orphans: 2; text-transform: none; widows: 2; word-spacing: 0px; -webkit-text-stroke-width: 0px; white-space: normal; text-decoration-thickness: initial; text-decoration-style: initial; text-decoration-color: initial; text-size-adjust: none; margin: 15px 0px 0px; padding: 0px; border: 0px; list-style: none; text-align: start; background-color: light-dark(rgb(255, 255, 255), rgb(18, 18, 18)); text-indent: 2em;&quot;&gt;&lt;font color=&quot;#333333&quot; face=&quot;宋体&quot; style=&quot;forced-color-adjust: none; font-size: 10px;&quot;&gt;&lt;span style=&quot;forced-color-adjust: none;&quot;&gt;https://www.gov.cn/lianbo/bumen/202407/content_6964533.htm&lt;/span&gt;&lt;/font&gt;&lt;/p&gt;" link="&lt;p data-mx-given-colors=&quot;{&amp;quot;background-color&amp;quot;:&amp;quot;rgb(255, 255, 255)&amp;quot;,&amp;quot;color&amp;quot;:&amp;quot;rgb(51, 51, 51)&amp;quot;}&quot; style=&quot;forced-color-adjust: none; font-family: Helvetica; font-size: 12px; font-style: normal; font-variant-ligatures: normal; font-variant-caps: normal; font-weight: 400; letter-spacing: normal; orphans: 2; text-align: left; text-transform: none; widows: 2; word-spacing: 0px; -webkit-text-stroke-width: 0px; white-space: normal; text-decoration-thickness: initial; text-decoration-style: initial; text-decoration-color: initial; text-size-adjust: none; margin: 15px 0px 0px; padding: 0px; border: 0px; list-style: none; background-color: light-dark(rgb(255, 255, 255), rgb(18, 18, 18)); text-indent: 2em; color: light-dark(rgb(51, 51, 51), rgb(193, 193, 193));&quot;&gt;&lt;font color=&quot;#333333&quot; face=&quot;宋体&quot; data-mx-given-colors=&quot;{&amp;quot;color&amp;quot;:&amp;quot;&amp;quot;}&quot; style=&quot;forced-color-adjust: none; color: light-dark(rgb(51, 51, 51), rgb(193, 193, 193));&quot;&gt;&lt;span style=&quot;forced-color-adjust: none; font-size: 16px;&quot;&gt;2023 年居民医保基金支出：10457.65 亿元&lt;/span&gt;&lt;/font&gt;&lt;/p&gt;&lt;p data-mx-given-colors=&quot;{&amp;quot;background-color&amp;quot;:&amp;quot;rgb(255, 255, 255)&amp;quot;,&amp;quot;color&amp;quot;:&amp;quot;rgb(51, 51, 51)&amp;quot;}&quot; style=&quot;forced-color-adjust: none; font-family: Helvetica; font-size: 12px; font-style: normal; font-variant-ligatures: normal; font-variant-caps: normal; font-weight: 400; letter-spacing: normal; orphans: 2; text-align: left; text-transform: none; widows: 2; word-spacing: 0px; -webkit-text-stroke-width: 0px; white-space: normal; text-decoration-thickness: initial; text-decoration-style: initial; text-decoration-color: initial; text-size-adjust: none; margin: 15px 0px 0px; padding: 0px; border: 0px; list-style: none; background-color: light-dark(rgb(255, 255, 255), rgb(18, 18, 18)); text-indent: 2em; color: light-dark(rgb(51, 51, 51), rgb(193, 193, 193));&quot;&gt;&lt;font color=&quot;#333333&quot; face=&quot;宋体&quot; data-mx-given-colors=&quot;{&amp;quot;color&amp;quot;:&amp;quot;&amp;quot;}&quot; style=&quot;forced-color-adjust: none; color: light-dark(rgb(51, 51, 51), rgb(193, 193, 193));&quot;&gt;&lt;span style=&quot;forced-color-adjust: none; font-size: 16px;&quot;&gt;2023 年居民医保参保人数：96294 万人 ≈ 9.6294 亿人&lt;/span&gt;&lt;/font&gt;&lt;/p&gt;&lt;p data-mx-given-colors=&quot;{&amp;quot;background-color&amp;quot;:&amp;quot;rgb(255, 255, 255)&amp;quot;,&amp;quot;color&amp;quot;:&amp;quot;rgb(51, 51, 51)&amp;quot;}&quot; style=&quot;forced-color-adjust: none; font-family: Helvetica; font-size: 12px; font-style: normal; font-variant-ligatures: normal; font-variant-caps: normal; font-weight: 400; letter-spacing: normal; orphans: 2; text-align: left; text-transform: none; widows: 2; word-spacing: 0px; -webkit-text-stroke-width: 0px; white-space: normal; text-decoration-thickness: initial; text-decoration-style: initial; text-decoration-color: initial; text-size-adjust: none; margin: 15px 0px 0px; padding: 0px; border: 0px; list-style: none; background-color: light-dark(rgb(255, 255, 255), rgb(18, 18, 18)); text-indent: 2em; color: light-dark(rgb(51, 51, 51), rgb(193, 193, 193));&quot;&gt;&lt;font color=&quot;#333333&quot; face=&quot;宋体&quot; data-mx-given-colors=&quot;{&amp;quot;color&amp;quot;:&amp;quot;&amp;quot;}&quot; style=&quot;forced-color-adjust: none; color: light-dark(rgb(51, 51, 51), rgb(193, 193, 193));&quot;&gt;&lt;span style=&quot;forced-color-adjust: none; font-size: 16px;&quot;&gt;计算：&lt;/span&gt;&lt;/font&gt;&lt;/p&gt;&lt;p data-mx-given-colors=&quot;{&amp;quot;background-color&amp;quot;:&amp;quot;rgb(255, 255, 255)&amp;quot;,&amp;quot;color&amp;quot;:&amp;quot;rgb(51, 51, 51)&amp;quot;}&quot; style=&quot;forced-color-adjust: none; font-family: Helvetica; font-size: 12px; font-style: normal; font-variant-ligatures: normal; font-variant-caps: normal; font-weight: 400; letter-spacing: normal; orphans: 2; text-align: left; text-transform: none; widows: 2; word-spacing: 0px; -webkit-text-stroke-width: 0px; white-space: normal; text-decoration-thickness: initial; text-decoration-style: initial; text-decoration-color: initial; text-size-adjust: none; margin: 15px 0px 0px; padding: 0px; border: 0px; list-style: none; background-color: light-dark(rgb(255, 255, 255), rgb(18, 18, 18)); text-indent: 2em; color: light-dark(rgb(51, 51, 51), rgb(193, 193, 193));&quot;&gt;&lt;font color=&quot;#333333&quot; face=&quot;宋体&quot; data-mx-given-colors=&quot;{&amp;quot;color&amp;quot;:&amp;quot;&amp;quot;}&quot; style=&quot;forced-color-adjust: none; color: light-dark(rgb(51, 51, 51), rgb(193, 193, 193));&quot;&gt;&lt;span style=&quot;forced-color-adjust: none; font-size: 16px;&quot;&gt;人均支出 = 10457.65 亿元 ÷ 9.6294 亿人 ≈ 1086.4 元/人·年&lt;/span&gt;&lt;/font&gt;&lt;/p&gt;&lt;p data-mx-given-colors=&quot;{&amp;quot;background-color&amp;quot;:&amp;quot;rgb(255, 255, 255)&amp;quot;,&amp;quot;color&amp;quot;:&amp;quot;rgb(51, 51, 51)&amp;quot;}&quot; style=&quot;forced-color-adjust: none; font-family: Helvetica; font-size: 12px; font-style: normal; font-variant-ligatures: normal; font-variant-caps: normal; font-weight: 400; letter-spacing: normal; orphans: 2; text-align: left; text-transform: none; widows: 2; word-spacing: 0px; -webkit-text-stroke-width: 0px; white-space: normal; text-decoration-thickness: initial; text-decoration-style: initial; text-decoration-color: initial; text-size-adjust: none; margin: 15px 0px 0px; padding: 0px; border: 0px; list-style: none; background-color: light-dark(rgb(255, 255, 255), rgb(18, 18, 18)); text-indent: 2em; color: light-dark(rgb(51, 51, 51), rgb(193, 193, 193));&quot;&gt;&lt;font color=&quot;#333333&quot; face=&quot;宋体&quot; data-mx-given-colors=&quot;{&amp;quot;color&amp;quot;:&amp;quot;&amp;quot;}&quot; style=&quot;forced-color-adjust: none; color: light-dark(rgb(51, 51, 51), rgb(193, 193, 193));&quot;&gt;&lt;span style=&quot;forced-color-adjust: none; font-size: 16px;&quot;&gt;������ 结论：城乡居民医保人均基金支出 ≈ 1086 元/年&lt;/span&gt;&lt;/font&gt;&lt;/p&gt;&lt;p data-mx-given-colors=&quot;{&amp;quot;background-color&amp;quot;:&amp;quot;rgb(255, 255, 255)&amp;quot;,&amp;quot;color&amp;quot;:&amp;quot;rgb(51, 51, 51)&amp;quot;}&quot; style=&quot;forced-color-adjust: none; font-family: Helvetica; font-size: 12px; font-style: normal; font-variant-ligatures: normal; font-variant-caps: normal; font-weight: 400; letter-spacing: normal; orphans: 2; text-align: left; text-transform: none; widows: 2; word-spacing: 0px; -webkit-text-stroke-width: 0px; white-space: normal; text-decoration-thickness: initial; text-decoration-style: initial; text-decoration-color: initial; text-size-adjust: none; margin: 15px 0px 0px; padding: 0px; border: 0px; list-style: none; background-color: light-dark(rgb(255, 255, 255), rgb(18, 18, 18)); text-indent: 2em; color: light-dark(rgb(51, 51, 51), rgb(193, 193, 193));&quot;&gt;&lt;font color=&quot;#333333&quot; face=&quot;宋体&quot; data-mx-given-colors=&quot;{&amp;quot;color&amp;quot;:&amp;quot;&amp;quot;}&quot; style=&quot;forced-color-adjust: none; color: light-dark(rgb(51, 51, 51), rgb(193, 193, 193));&quot;&gt;&lt;span style=&quot;forced-color-adjust: none; font-size: 16px;&quot;&gt;引用资料:&lt;/span&gt;&lt;/font&gt;&lt;/p&gt;&lt;p data-mx-given-colors=&quot;{&amp;quot;color&amp;quot;:&amp;quot;rgb(51, 51, 51)&amp;quot;,&amp;quot;background-color&amp;quot;:&amp;quot;rgb(255, 255, 255)&amp;quot;}&quot; style=&quot;forced-color-adjust: none; font-style: normal; font-variant-ligatures: normal; font-variant-caps: normal; font-weight: 400; letter-spacing: normal; orphans: 2; text-transform: none; widows: 2; word-spacing: 0px; -webkit-text-stroke-width: 0px; white-space: normal; text-decoration-thickness: initial; text-decoration-style: initial; text-decoration-color: initial; text-size-adjust: none; margin: 15px 0px 0px; padding: 0px; border: 0px; list-style: none; color: light-dark(rgb(51, 51, 51), rgb(193, 193, 193)); font-family: 宋体; font-size: 16px; text-align: start; background-color: light-dark(rgb(255, 255, 255), rgb(18, 18, 18)); text-indent: 2em;&quot;&gt;截至2023年底，全国基本医疗保险参保133389万人，其中，职工基本医疗保险参保37095万人，比上年增加852万人，增长2.3%；城乡居民基本医疗保险（以下简称“居民医保”）参保96294万人。&lt;/p&gt;&lt;p data-mx-given-colors=&quot;{&amp;quot;background-color&amp;quot;:&amp;quot;rgb(255, 255, 255)&amp;quot;,&amp;quot;color&amp;quot;:&amp;quot;rgb(51, 51, 51)&amp;quot;}&quot; style=&quot;forced-color-adjust: none; font-family: Helvetica; font-size: 12px; font-style: normal; font-variant-ligatures: normal; font-variant-caps: normal; font-weight: 400; letter-spacing: normal; orphans: 2; text-transform: none; widows: 2; word-spacing: 0px; -webkit-text-stroke-width: 0px; white-space: normal; text-decoration-thickness: initial; text-decoration-style: initial; text-decoration-color: initial; text-size-adjust: none; margin: 15px 0px 0px; padding: 0px; border: 0px; list-style: none; text-align: start; background-color: light-dark(rgb(255, 255, 255), rgb(18, 18, 18)); text-indent: 2em; color: light-dark(rgb(51, 51, 51), rgb(193, 193, 193));&quot;&gt;&lt;font color=&quot;#333333&quot; face=&quot;宋体&quot; data-mx-given-colors=&quot;{&amp;quot;color&amp;quot;:&amp;quot;&amp;quot;}&quot; style=&quot;forced-color-adjust: none; color: light-dark(rgb(51, 51, 51), rgb(193, 193, 193));&quot;&gt;&lt;span style=&quot;forced-color-adjust: none; font-size: 16px;&quot;&gt;2023年，居民医保基金收入10569.71亿元，支出10457.65亿元，当期结存112.06亿元，累计结存7663.70亿元。&lt;/span&gt;&lt;/font&gt;&lt;/p&gt;&lt;p data-mx-given-colors=&quot;{&amp;quot;background-color&amp;quot;:&amp;quot;rgb(255, 255, 255)&amp;quot;,&amp;quot;color&amp;quot;:&amp;quot;rgb(51, 51, 51)&amp;quot;}&quot; style=&quot;forced-color-adjust: none; color: rgb(0, 0, 0); font-family: Helvetica; font-size: 12px; font-style: normal; font-variant-ligatures: normal; font-variant-caps: normal; font-weight: 400; letter-spacing: normal; orphans: 2; text-transform: none; widows: 2; word-spacing: 0px; -webkit-text-stroke-width: 0px; white-space: normal; text-decoration-thickness: initial; text-decoration-style: initial; text-decoration-color: initial; text-size-adjust: none; margin: 15px 0px 0px; padding: 0px; border: 0px; list-style: none; text-align: start; background-color: light-dark(rgb(255, 255, 255), rgb(18, 18, 18)); text-indent: 2em;&quot;&gt;&lt;font color=&quot;#333333&quot; face=&quot;宋体&quot; data-mx-given-colors=&quot;{&amp;quot;color&amp;quot;:&amp;quot;&amp;quot;}&quot; style=&quot;forced-color-adjust: none;&quot;&gt;&lt;span style=&quot;forced-color-adjust: none; font-size: 16px;&quot;&gt;https://www.gov.cn/lianbo/bumen/202407/content_6964533.htm&lt;/span&gt;&lt;/font&gt;&lt;/p&gt;" id="KiAbnsjRKru4ppElIW58-21">
          <mxCell style="text;whiteSpace=wrap;html=1;fillColor=#f8cecc;strokeColor=#b85450;" parent="1" vertex="1">
            <mxGeometry x="-750" y="40" width="580" height="300" as="geometry" />
          </mxCell>
        </UserObject>
        <mxCell id="KiAbnsjRKru4ppElIW58-55" style="edgeStyle=orthogonalEdgeStyle;rounded=0;orthogonalLoop=1;jettySize=auto;html=1;entryX=0.5;entryY=1;entryDx=0;entryDy=0;" parent="1" source="KiAbnsjRKru4ppElIW58-31" target="KiAbnsjRKru4ppElIW58-50" edge="1">
          <mxGeometry relative="1" as="geometry" />
        </mxCell>
        <mxCell id="KiAbnsjRKru4ppElIW58-57" style="edgeStyle=orthogonalEdgeStyle;rounded=0;orthogonalLoop=1;jettySize=auto;html=1;" parent="1" source="KiAbnsjRKru4ppElIW58-31" target="KiAbnsjRKru4ppElIW58-56" edge="1">
          <mxGeometry relative="1" as="geometry" />
        </mxCell>
        <mxCell id="KiAbnsjRKru4ppElIW58-31" value="门诊人数:   26.1亿人次, 26.1/9.6=2.72次/人            住院2亿人次  2/9.6=0.21次/人&#xa;&#xa;引用资料:&#xa;1.参保人数。截至2023年底，城乡居民基本医疗保险（以下简称居民医保）参保96294万人。&#xa;3.待遇享受。2023年，参加居民医保人员享受待遇26.1亿人次，比上年增长21.1%。其中，普通门急诊20.8亿人次，门诊慢特病3.4亿人次，住院2亿人次。次均住院费用7674元，其中，在三级、二级、一级及以下医疗机构（含未定级）的次均住院费用分别为12765元、6205元、2943元。居民医保参保人员住院率&#xa;为20.7%，次均住院床日8.8天。&#xa;https://www.nhsa.gov.cn/art/2024/7/25/art_7_13340.html" style="text;whiteSpace=wrap;fillColor=#f8cecc;strokeColor=#b85450;" parent="1" vertex="1">
          <mxGeometry x="40" y="470" width="560" height="143" as="geometry" />
        </mxCell>
        <mxCell id="KiAbnsjRKru4ppElIW58-43" value="" style="edgeStyle=orthogonalEdgeStyle;rounded=0;orthogonalLoop=1;jettySize=auto;html=1;" parent="1" source="KiAbnsjRKru4ppElIW58-34" target="KiAbnsjRKru4ppElIW58-42" edge="1">
          <mxGeometry relative="1" as="geometry" />
        </mxCell>
        <mxCell id="KiAbnsjRKru4ppElIW58-34" value="推断: 年轻人就诊概率为平均概率的1/3&lt;div&gt;年轻人看病支出为1000/3=333元&lt;/div&gt;" style="whiteSpace=wrap;html=1;fillColor=#6d8764;fontColor=#ffffff;strokeColor=#3A5431;" parent="1" vertex="1">
          <mxGeometry x="205" y="830" width="230" height="60" as="geometry" />
        </mxCell>
        <mxCell id="KiAbnsjRKru4ppElIW58-42" value="结论: 年轻人医保在上海数学期望是亏的,&lt;div&gt;其他地区大概率也亏&lt;/div&gt;" style="ellipse;whiteSpace=wrap;html=1;fillColor=#e51400;strokeColor=#B20000;fontColor=#ffffff;" parent="1" vertex="1">
          <mxGeometry x="258.5" y="1011" width="123" height="121" as="geometry" />
        </mxCell>
        <mxCell id="KiAbnsjRKru4ppElIW58-50" value="泊松分布:1 - e^-2.72=0.93&lt;div&gt;1 - e^-0.21=0.189&lt;/div&gt;&lt;div&gt;&lt;br&gt;&lt;/div&gt;&lt;div&gt;人均至少一次住院概率为18.9%&lt;/div&gt;" style="rounded=1;whiteSpace=wrap;html=1;arcSize=28;" parent="1" vertex="1">
          <mxGeometry x="-165" y="362" width="195" height="60" as="geometry" />
        </mxCell>
        <mxCell id="KiAbnsjRKru4ppElIW58-58" style="edgeStyle=orthogonalEdgeStyle;rounded=0;orthogonalLoop=1;jettySize=auto;html=1;entryX=0.5;entryY=0;entryDx=0;entryDy=0;" parent="1" source="KiAbnsjRKru4ppElIW58-56" target="KiAbnsjRKru4ppElIW58-34" edge="1">
          <mxGeometry relative="1" as="geometry" />
        </mxCell>
        <mxCell id="KiAbnsjRKru4ppElIW58-56" value="人均住院概率为21%" style="ellipse;whiteSpace=wrap;html=1;" parent="1" vertex="1">
          <mxGeometry x="260" y="647" width="120" height="80" as="geometry" />
        </mxCell>
      </root>
    </mxGraphModel>
  </diagram>
</mxfile>
